PathFileType	4	(x/y/z)	S09_M20_T19
DataRate	CameraRate	NumFrames	NumMarkers	Units	OrigDataRate	OrigDataStartFrame	OrigNumFrames
240	240	7	51	mm	240	1	556
Frame#	Time	Sternum			R.Acromium			L.Acromium			Top.Head			R.ASIS			L.ASIS			R.PSIS			L.PSIS			R.Great.Tro			L.Great.Tro			R.Iliac.Crest			L.Iliac.Crest			V.Sacral			R.Thigh.Upper.Post			R.Thigh.Lower.Ant			R.Thigh.Lower.Post			R.Thigh.Upper.Ant			R.Knee.Lat			R.Knee.Med			R.Shank.Upper.Post			R.Shank.Lower.Ant			R.Shank.Lower.Post			R.Shank.Upper.Ant			R.Ankle.Lat			R.Ankle.Med			R.Heel.Upper			R.Heel.Med			R.Heel.Lat			R.Toe.Lat			R.Toe.Med			R.Toe.Tip			L.Thigh.Upper.Post			L.Thigh.Lower.Ant			L.Thigh.Lower.Post			L.Thigh.Upper.Ant			L.Knee.Lat			L.Knee.Med			L.Shank.Upper.Post			L.Shank.Lower.Ant			L.Shank.Lower.Post			L.Shank.Upper.Ant			L.Ankle.Lat			L.Ankle.Med			L.Heel.Upper			L.Heel.Med			L.Heel.Lat			L.Toe.Lat			L.Toe.Med			L.Toe.Tip			Cervical.Spine			Back			
		X1	Y1	Z1	X2	Y2	Z2	X3	Y3	Z3	X4	Y4	Z4	X5	Y5	Z5	X6	Y6	Z6	X7	Y7	Z7	X8	Y8	Z8	X9	Y9	Z9	X10	Y10	Z10	X11	Y11	Z11	X12	Y12	Z12	X13	Y13	Z13	X14	Y14	Z14	X15	Y15	Z15	X16	Y16	Z16	X17	Y17	Z17	X18	Y18	Z18	X19	Y19	Z19	X20	Y20	Z20	X21	Y21	Z21	X22	Y22	Z22	X23	Y23	Z23	X24	Y24	Z24	X25	Y25	Z25	X26	Y26	Z26	X27	Y27	Z27	X28	Y28	Z28	X29	Y29	Z29	X30	Y30	Z30	X31	Y31	Z31	X32	Y32	Z32	X33	Y33	Z33	X34	Y34	Z34	X35	Y35	Z35	X36	Y36	Z36	X37	Y37	Z37	X38	Y38	Z38	X39	Y39	Z39	X40	Y40	Z40	X41	Y41	Z41	X42	Y42	Z42	X43	Y43	Z43	X44	Y44	Z44	X45	Y45	Z45	X46	Y46	Z46	X47	Y47	Z47	X48	Y48	Z48	X49	Y49	Z49	X50	Y50	Z50	X51	Y51	Z51	

1	0	-777.82	1151.3	307.5	-918.62	1401.9	441.69	-923.86	1378	129.74	-920.48	1690.3	267.56	-825.83	981.78	428.52	-802.56	983.92	181.23	-1039.7	1004.8	327.73	-1024.5	997.48	240.98	-923.88	900.32	494.9	-858.02	891.7	106.43	-921.74	1063.3	464.15	-916.8	1067.2	136.34	-1051.3	966.28	280.25	-1004.4	663.68	456.54	-965.66	545.94	418.85	-1036.9	579.28	424.13	-941.13	629.2	449.48	-1017.5	482.08	407.32	-1020.9	476.8	287.01	-1160.7	355.51	412.24	-1126.8	271.63	399.36	-1198.1	287.71	396.12	-1096.9	338.1	412.04	-1260.4	115.52	381.91	-1239.3	114.84	290.86	-1333.4	104.45	331.7	-1328	68.928	306.13	-1338.7	79.734	369.64	-1182.2	43.621	426.22	-1130.9	38.544	320.68	-1083	45.946	369.28	-808.89	631.6	138.51	-693.1	580.23	142.81	-757.43	557.85	157.11	-741.81	652.43	119.99	-670.65	508.4	150.71	-671.86	513.54	289.34	-652.75	369.97	133.07	-554.46	319.72	142.05	-617.31	301.31	136.46	-590.55	388.55	139.27	-501.71	130.88	150.86	-481.11	136.82	242.65	-532.52	53.58	207.47	-504.62	43.849	237.02	-513.92	32.753	177.43	-382.24	137.38	111.66	-351.04	169.46	217.57	-328.5	212.24	156.01	-1000.6	1439.4	292.45	-1044.2	1169.4	295.37
2	0.0041667	-772.33	1150.5	306.93	-913.51	1400.7	441.02	-918.64	1377	129.11	-915.56	1689.3	267.03	-820.36	980.77	427.87	-796.64	983.15	180.65	-1034	1004	326.73	-1018.7	996.66	240	-918.89	899.35	494.04	-851.73	891	105.82	-916.4	1062.3	463.45	-911.18	1066.4	135.56	-1045.6	965.55	279.22	-1000.1	663.1	455.75	-961.73	545.19	418.44	-1032.8	578.87	423.56	-936.96	628.37	448.91	-1013.8	481.47	406.85	-1016.8	475.98	286.41	-1157.8	355.88	411.54	-1124.5	271.84	399.07	-1195.6	288.52	395.98	-1094.1	338.1	411.7	-1259.4	116.77	381.77	-1238	115.68	290.75	-1332.3	106.23	331.6	-1327.4	70.705	305.96	-1338.3	81.678	369.5	-1182	43.836	426.21	-1130.7	38.534	320.79	-1082.8	45.798	369.37	-802.34	630.94	138.22	-686.47	579.79	142.98	-750.83	557.29	157.04	-735.25	651.86	119.92	-664.25	507.74	151.02	-665.46	513.45	289.27	-647.45	369.3	132.94	-549.82	318.04	142.25	-612.76	300.29	136.32	-585.27	387.19	139.53	-499.22	129.02	150.79	-478.75	134.47	242.69	-530.91	52.888	207.17	-503.24	42.773	236.77	-512.72	31.746	177.17	-379.9	134.51	111.67	-348.48	166.19	217.67	-325.71	208.93	156.12	-995.6	1438.4	291.82	-1038.7	1168.3	294.61
3	0.0083333	-766.6	1149.6	306.33	-908.19	1399.6	440.32	-913.2	1376.1	128.44	-910.43	1688.3	266.48	-814.64	979.71	427.19	-790.46	982.36	180.04	-1028.2	1003.2	325.67	-1012.5	995.81	238.98	-913.67	898.34	493.15	-845.16	890.28	105.18	-910.81	1061.3	462.7	-905.3	1065.5	134.74	-1039.6	964.79	278.13	-995.52	662.5	454.93	-957.58	544.42	418	-1028.5	578.44	422.95	-932.59	627.51	448.31	-1009.9	480.85	406.35	-1012.5	475.14	285.8	-1154.8	356.28	410.83	-1122.2	272.09	398.76	-1193	289.4	395.85	-1091.2	338.1	411.35	-1258.4	118.09	381.64	-1236.7	116.58	290.63	-1331.2	108.12	331.51	-1326.8	72.595	305.78	-1337.9	83.745	369.36	-1181.8	44.068	426.19	-1130.5	38.525	320.89	-1082.5	45.648	369.46	-795.54	630.26	137.91	-679.59	579.31	143.14	-743.98	556.7	156.96	-728.44	651.27	119.85	-657.61	507.05	151.3	-658.81	513.34	289.17	-641.95	368.61	132.81	-544.99	316.3	142.46	-608.01	299.23	136.18	-579.79	385.79	139.8	-496.58	127.13	150.72	-476.28	132.06	242.73	-529.21	52.255	206.86	-501.82	41.727	236.52	-511.49	30.776	176.92	-377.46	131.5	111.71	-345.8	162.77	217.79	-322.76	205.45	156.23	-990.34	1437.2	291.15	-1033	1167.1	293.82
4	0.0125	-760.64	1148.8	305.69	-902.68	1398.4	439.6	-907.56	1375.1	127.76	-905.13	1687.3	265.91	-808.7	978.63	426.49	-784.05	981.55	179.4	-1022.1	1002.4	324.58	-1006.2	994.95	237.9	-908.22	897.3	492.22	-838.35	889.54	104.51	-905	1060.2	461.92	-899.21	1064.6	133.88	-1033.4	964.01	276.99	-990.79	661.89	454.07	-953.26	543.61	417.53	-1024	577.99	422.3	-928.02	626.63	447.68	-1005.8	480.2	405.84	-1008.1	474.28	285.16	-1151.6	356.73	410.11	-1119.7	272.35	398.44	-1190.2	290.33	395.72	-1088.1	338.12	410.99	-1257.3	119.48	381.51	-1235.2	117.54	290.53	-1330.1	110.12	331.42	-1326	74.597	305.6	-1337.4	85.928	369.24	-1181.6	44.317	426.18	-1130.2	38.518	321	-1082.3	45.499	369.55	-788.55	629.57	137.6	-672.52	578.81	143.29	-736.96	556.1	156.88	-721.43	650.66	119.76	-650.78	506.35	151.55	-651.95	513.21	289.05	-636.29	367.9	132.7	-540	314.53	142.68	-603.11	298.16	136.06	-574.14	384.37	140.07	-493.83	125.23	150.66	-473.69	129.62	242.79	-527.44	51.706	206.56	-500.35	40.736	236.27	-510.23	29.868	176.67	-374.92	128.39	111.79	-343.01	159.21	217.94	-319.65	201.81	156.37	-984.89	1436.1	290.46	-1027.1	1165.8	293
5	0.016667	-754.51	1147.9	305.02	-897.03	1397.1	438.85	-901.77	1374.1	127.04	-899.68	1686.2	265.33	-802.57	977.52	425.76	-777.46	980.73	178.74	-1015.8	1001.5	323.44	-999.66	994.08	236.79	-902.59	896.23	491.25	-831.34	888.8	103.8	-899	1059.1	461.11	-892.94	1063.7	132.97	-1027	963.22	275.8	-985.88	661.26	453.18	-948.76	542.79	417.03	-1019.4	577.53	421.6	-923.26	625.72	447.03	-1001.6	479.54	405.31	-1003.4	473.41	284.52	-1148.2	357.21	409.41	-1117.1	272.65	398.1	-1187.3	291.31	395.6	-1084.9	338.14	410.63	-1256.1	120.94	381.38	-1233.8	118.57	290.43	-1328.9	112.23	331.33	-1325.3	76.709	305.42	-1337	88.22	369.12	-1181.3	44.584	426.17	-1130	38.515	321.11	-1082	45.352	369.64	-781.41	628.87	137.28	-665.32	578.28	143.42	-729.79	555.48	156.79	-714.27	650.02	119.67	-643.82	505.63	151.74	-644.93	513.07	288.9	-630.51	367.17	132.6	-534.89	312.76	142.9	-598.09	297.08	135.95	-568.37	382.93	140.34	-490.97	123.34	150.61	-471.01	127.18	242.85	-525.61	51.26	206.26	-498.87	39.821	236.04	-508.95	29.044	176.43	-372.31	125.19	111.89	-340.12	155.54	218.11	-316.39	198.03	156.52	-979.29	1434.9	289.75	-1020.9	1164.6	292.14
6	0.020833	-748.21	1147	304.32	-891.25	1395.9	438.08	-895.84	1373	126.31	-894.12	1685.2	264.74	-796.27	976.4	425.01	-770.7	979.92	178.06	-1009.3	1000.6	322.27	-992.97	993.21	235.65	-896.79	895.14	490.25	-824.15	888.06	103.07	-892.85	1058	460.26	-886.51	1062.9	132.04	-1020.4	962.41	274.58	-980.81	660.61	452.26	-944.1	541.95	416.51	-1014.6	577.04	420.86	-918.35	624.8	446.37	-997.17	478.86	404.76	-998.69	472.52	283.86	-1144.7	357.74	408.73	-1114.4	272.98	397.74	-1184.3	292.35	395.48	-1081.6	338.17	410.26	-1254.9	122.47	381.25	-1232.2	119.67	290.34	-1327.6	114.45	331.25	-1324.4	78.932	305.24	-1336.6	90.613	369.02	-1181	44.871	426.16	-1129.7	38.514	321.22	-1081.8	45.208	369.73	-774.16	628.17	136.96	-658.02	577.73	143.54	-722.54	554.85	156.7	-707	649.37	119.55	-636.75	504.91	151.88	-637.79	512.91	288.73	-624.64	366.44	132.51	-529.69	310.98	143.12	-592.96	296.01	135.86	-562.49	381.5	140.61	-488.01	121.48	150.57	-468.25	124.75	242.93	-523.73	50.933	205.97	-497.37	38.998	235.81	-507.67	28.321	176.21	-369.64	121.92	112.04	-337.16	151.77	218.32	-313	194.11	156.7	-973.57	1433.7	289.02	-1014.7	1163.3	291.25
7	0.025	-741.79	1146.2	303.6	-885.37	1394.6	437.29	-889.8	1372	125.55	-888.48	1684.1	264.14	-789.84	975.27	424.25	-763.82	979.11	177.36	-1002.7	999.76	321.07	-986.14	992.35	234.47	-890.84	894.03	489.23	-816.83	887.34	102.31	-886.55	1056.9	459.39	-879.95	1062	131.08	-1013.7	961.6	273.32	-975.58	659.96	451.32	-939.29	541.09	415.96	-1009.6	576.55	420.09	-913.28	623.87	445.68	-992.63	478.18	404.21	-993.81	471.63	283.2	-1141.1	358.31	408.08	-1111.6	273.34	397.36	-1181.2	293.44	395.38	-1078.1	338.21	409.88	-1253.6	124.06	381.14	-1230.6	120.83	290.27	-1326.2	116.77	331.18	-1323.5	81.266	305.05	-1336.1	93.1	368.93	-1180.7	45.179	426.16	-1129.4	38.516	321.33	-1081.5	45.068	369.82	-766.85	627.49	136.64	-650.66	577.16	143.63	-715.24	554.23	156.6	-699.67	648.72	119.42	-629.63	504.19	151.95	-630.57	512.74	288.52	-618.7	365.72	132.43	-524.41	309.24	143.35	-587.76	294.96	135.78	-556.55	380.08	140.87	-484.96	119.67	150.55	-465.42	122.37	243.01	-521.8	50.734	205.69	-495.87	38.28	235.6	-506.4	27.712	176	-366.91	118.59	112.22	-334.13	147.91	218.57	-309.49	190.07	156.9	-967.74	1432.5	288.27	-1008.3	1161.9	290.34
